<svg width="408" height="676" viewBox="0 0 408 676" fill="none" xmlns="http://www.w3.org/2000/svg">
<g opacity="0.4">
<path d="M407.201 253.699H292.17C301.517 279.346 306.214 306.454 306.041 333.751C306.315 363.986 300.979 394.01 290.305 422.299H407.201V253.699Z" fill="#221E1F"/>
<path d="M154.299 120.08V0.800781H-14.3008V119.27C12.8711 110.201 41.3544 105.681 69.9992 105.895C98.7078 105.716 127.23 110.515 154.299 120.08Z" fill="#221E1F"/>
<path d="M-14.3008 556.056V675.2H154.299V555.135C127.294 564.989 98.7461 569.945 69.9992 569.769C41.3261 569.996 12.8221 565.36 -14.3008 556.056Z" fill="#221E1F"/>
<path d="M69.9995 508.354C20.1838 508.354 -21.1419 491.929 -53.9777 459.078C-86.8135 426.227 -103.239 384.902 -103.254 335.101C-103.254 287.293 -86.8285 247.459 -53.9777 215.597C-21.1269 183.736 20.1988 167.82 69.9995 167.85C117.792 167.85 158.616 183.766 192.471 215.597C226.325 247.429 243.253 287.263 243.253 335.101C243.253 384.917 226.325 426.242 192.471 459.078C158.616 491.914 117.792 508.339 69.9995 508.354Z" fill="#007AFF"/>
</g>
</svg>
