<svg width="35" height="32" viewBox="0 0 35 32" fill="none" xmlns="http://www.w3.org/2000/svg">
<path d="M2 2C2.21322 2.99505 8.26698 13.2032 8.52759 12.6386C9.75415 9.98105 11.4755 7.62524 13.4997 5.4999C14.2008 4.76374 15.0604 4.37834 15.4996 3.49996" stroke="#E3E3E3" stroke-width="3" stroke-linecap="round"/>
<path d="M8.49205 11C6.94755 16.0547 5.04975 21.1829 4.10328 26.3885C3.91629 27.4169 4.46258 29.5143 3.49219 29.9995" stroke="#E3E3E3" stroke-width="3" stroke-linecap="round"/>
<path d="M19.9987 9C19.6971 10.8096 18.3618 12.2456 17.8877 13.9999C17.185 16.5996 16.7376 18.8656 17.0266 21.6108C17.2813 24.0307 21.8204 24.8274 23.7764 24.4718C26.2328 24.0252 30.2416 19.5291 31.4984 17.6109C32.7808 15.6535 32.9984 12.7884 32.9984 10.5" stroke="#E3E3E3" stroke-width="3" stroke-linecap="round"/>
</svg>
